<svg class="nc-icon glyph" xmlns="http://www.w3.org/2000/svg" xmlns:xlink="http://www.w3.org/1999/xlink" x="0px" y="0px" width="48px" height="48px" viewBox="0 0 48 48">
<g>
<path data-color="color-2" fill="#ffffff" d="M10,1H5C4.4,1,4,1.4,4,2v44c0,0.6,0.4,1,1,1h5V1z"></path>
<path fill="#ffffff" d="M39,1H12v46h27c1.7,0,3-1.3,3-3V4C42,2.3,40.7,1,39,1z M25,31h-6c-0.6,0-1-0.4-1-1s0.4-1,1-1h6
	c0.6,0,1,0.4,1,1S25.6,31,25,31z M33,25H19c-0.6,0-1-0.4-1-1s0.4-1,1-1h14c0.6,0,1,0.4,1,1S33.6,25,33,25z M34,18c0,0.6-0.4,1-1,1
	H19c-0.6,0-1-0.4-1-1v-8c0-0.6,0.4-1,1-1h14c0.6,0,1,0.4,1,1V18z"></path>
<path data-color="color-2" fill="#ffffff" d="M44,7c-0.6,0-1,0.4-1,1v4c0,0.6,0.4,1,1,1s1-0.4,1-1V8C45,7.4,44.6,7,44,7z"></path>
<path data-color="color-2" fill="#ffffff" d="M44,17c-0.6,0-1,0.4-1,1v4c0,0.6,0.4,1,1,1s1-0.4,1-1v-4C45,17.4,44.6,17,44,17z"></path>
</g>
</svg>