<?xml version="1.0" encoding="utf-8"?>
<!-- Generator: Adobe Illustrator 19.2.0, SVG Export Plug-In . SVG Version: 6.00 Build 0)  -->
<svg version="1.1" xmlns="http://www.w3.org/2000/svg" xmlns:xlink="http://www.w3.org/1999/xlink" x="0px" y="0px"
	 viewBox="0 0 373.3 373.3" style="enable-background:new 0 0 373.3 373.3;" xml:space="preserve">
<style type="text/css">
	.st0{fill:#272553;}
	.st1{fill:#4358A4;}
	.st2{font-family:'Arial-Black';}
	.st3{font-size:71.9109px;}
	.st4{fill:#D0EAF3;}
	.st5{font-size:70px;}
</style>
<g id="Calque_1">
	<path class="st0" d="M373.3,186.7c0,103.1-83.6,186.7-186.7,186.7C83.6,373.3,0,289.8,0,186.7C0,83.6,83.6,0,186.7,0
		C289.8,0,373.3,83.6,373.3,186.7"/>
</g>
<g id="Calque_2_-_copie">
	<text transform="matrix(1 0 0 1 78.7769 213.1377)" class="st1 st2 st3">LIVVI</text>
</g>
<g id="Calque_3_-_copie">
	<g>
		<path class="st1" d="M361.7,175.1h-9.9l-0.1-21.6h-22.8l0-19l-1,0l1,0l0-2.1l-4.1,0v0l4.1,0l0,2.1l25.5,0.4
			c-0.4-1.4-0.9-2.8-1.3-4.1l-26.2-0.4l-44.8,0.3v-23.8H256V144h4.1v-33.1h18v23.8l46.8-0.2l0,19.1h-22.9v4.1h29.1v0h16.7l0.1,21.6
			h14.2v-0.5C361.9,177.5,361.8,176.3,361.7,175.1z"/>
		<polygon class="st1" points="306.1,179.2 306.1,179.2 330.4,179.2 330.4,175.1 301.9,175.1 301.9,179.2 302,179.2 302,179.2 
			302,205.6 347.6,205.6 347.6,223 302,223 302,239.6 283.3,239.6 283.2,229.4 279.1,229.4 279.3,243.7 306.1,243.7 306.1,227.1 
			347.6,227.1 347.6,227.1 351.7,227.1 351.7,224.8 351.7,224.8 351.7,201.5 306.1,201.5 		"/>
		<path class="st1" d="M325.9,244.4v23.7h-65.9v-26.4l-4.1,0l-0.1,30.5h0.1v41.1h-20.6v23.8h-21.9v-21.7h-4.1v21.7h0v0h-46.2v23.3
			c1.4,0.2,2.7,0.3,4.1,0.5v-19.7h42.1v0h2.1v-4.1h0v4.1h28.1v-23.8h20.6v-45.2h70v-23.7h20.6c0.4-0.9,0.7-1.9,1-2.8v-18.6h-4.1
			v17.3H325.9z"/>
		<path class="st1" d="M72.5,114.5h46.4V144h4.1V89.9h22.9V66.3h45v-4.1h-44.9h0l0.6-47.3c-1.4,0.3-2.8,0.7-4.1,1l-0.6,46.3h0v2v0
			v21.5H123h-4.2v0H93.8v4.1h25l-0.5,20.5H76.6V87.8h0v-2.1V66.3H123l-0.6-44c-1.4,0.5-2.7,1.1-4.1,1.7l0.5,38.2H76.6V48.9
			c-1.4,1.1-2.8,2.2-4.1,3.4v12h0v2.1v19.4v2.1h0v-2.1H53.7V70.8c-1.4,1.6-2.8,3.3-4.1,4.9v14.1h22.9V114.5z"/>
		<path class="st1" d="M280.5,295h43.8c1.1-1.4,2.1-2.7,3.1-4.1h-47V295z"/>
		<path class="st1" d="M123.3,290.8h-23.2v-41.4h18.2v-4.1H96v22.1h2.1v0H96v4.1h0v-4.1H49.6v29c1.3,1.7,2.7,3.3,4.1,4.9v-29.9H96
			V295h23.2v24.6h23.2v36.8c1.3,0.3,2.6,0.6,3.8,0.9h0.3v-41.9h-23.2V290.8z"/>
		<polygon class="st1" points="118.3,229.4 118.3,245.4 118.3,249.5 118.3,274.6 122.4,274.6 122.4,249.5 144.4,249.5 144.4,245.4 
			122.4,245.4 122.4,229.4 		"/>
		<polygon class="st1" points="98,130.4 72.5,130.4 72.5,144 76.6,144 76.6,134.5 98,134.5 		"/>
		<path class="st1" d="M101.6,38.4H91.1C89,39.7,87,41.1,85,42.5h16.6V38.4z"/>
		<path class="st1" d="M192.9,10.5c-1.4-0.1-2.7-0.1-4.1-0.1v10.4h4.1V10.5z"/>
		<path class="st1" d="M233.7,35.7v24.6l-24.3,0.4v26.5h23l0.4,56.8h4.1l-0.4-60.9h-23V64.8l24.3-0.4V39.8H256v47.9h47.3l0.5,23.2
			h41.4c-0.7-1.4-1.3-2.7-2-4.1h-35.4l-0.5-23.2h-47.2V35.7H233.7z"/>
		<polygon class="st1" points="164.6,85.8 164.6,106.8 140.9,106.8 140.9,133 154.3,133 154.5,144 158.6,144 158.4,128.9 145,128.9 
			145,110.9 168.7,110.9 168.7,89.9 188.2,89.9 188.2,110.9 209.3,110.9 209.3,130.7 178,130.6 178,134.5 178,134.8 192.3,134.8 
			213.4,134.9 213.4,106.8 192.3,106.8 192.3,85.8 		"/>
		<polygon class="st1" points="70.6,205.6 70.6,201.5 53.2,201.5 53.2,243.7 76.6,243.7 76.6,229.4 72.5,229.4 72.5,239.6 
			57.3,239.6 57.3,205.6 		"/>
		<polygon class="st1" points="164.3,319.5 191.4,319.5 191.4,293.2 237.8,293.2 237.8,245.4 213.4,245.4 213.4,229.4 209.3,229.4 
			209.3,247.4 209.3,249.5 209.3,249.5 209.3,267.5 183.1,267.5 183.1,271.6 213.5,271.6 213.5,249.5 233.7,249.5 233.7,289 
			187.3,289 187.3,315.4 168.4,315.4 167.7,289.2 145,289.2 145,271.6 169.7,271.6 169.1,249.5 191,249.5 191,229.4 186.9,229.4 
			186.9,245.4 164.9,245.4 165.5,267.5 140.9,267.5 140.9,293.3 163.7,293.3 		"/>
		<path class="st1" d="M49.6,179.2l21,0.4v-4.1l-16.9-0.3v-68.3H29.5c-0.7,1.4-1.4,2.7-2,4.1h22.1V179.2z"/>
		<path class="st1" d="M333.3,89.8c-0.9-1.3-1.8-2.7-2.7-4h-1.7v-2.4c-1.3-1.9-2.7-3.7-4.1-5.5v12h8.5V89.8z"/>
		<path class="st1" d="M305.9,57.3c-1.4-1.3-2.7-2.5-4.1-3.7v8.6h-19.2V39.1c-1.4-0.9-2.7-1.8-4.1-2.6v29.9h27.4V57.3z"/>
		<path class="st1" d="M213.5,20h30.4c-4.5-1.5-9-2.9-13.6-4.1h-20.9v22.5h-42.1v-27c-1.4,0.1-2.7,0.3-4.1,0.5v30.6h50.3V20z"/>
		<path class="st1" d="M100.1,315.4H76.6v-22.5h-4.1v26.6H96v17.4c2.5,1.5,5,2.9,7.6,4.3h15.3v7.3c1.3,0.6,2.7,1.1,4.1,1.6h0v-13
			h-22.9V315.4z"/>
		<path class="st1" d="M30.1,130.4H19.6c-0.5,1.4-0.9,2.7-1.3,4.1h7.7v19.1H13.6c-0.3,1.4-0.5,2.7-0.7,4.1h17.2V130.4z"/>
		<path class="st1" d="M30.1,222.8H14.4c0.3,1.4,0.6,2.7,0.9,4.1h10.6v18.5h-5.1c0.5,1.4,1,2.7,1.5,4.1h3.6v8.6
			c1.3,2.8,2.6,5.6,4,8.3h0.1v-17h0v-3h0V222.8z"/>
		<path class="st1" d="M30.1,175.1H10.9c-0.1,1.3-0.1,2.6-0.2,3.9v0.2h15.2v22.2H11.2c0.1,1.4,0.3,2.7,0.4,4.1h18.4V175.1z"/>
		<path class="st1" d="M278.3,335.9c1.4-0.9,2.8-1.7,4.1-2.6l0.1-14.7h19.3c1.5-1.3,3-2.7,4.5-4.1h-27.9L278.3,335.9z"/>
		<path class="st1" d="M254.6,348.1c1.4-0.6,2.7-1.2,4.1-1.8v-5l10.5-0.2c2.5-1.4,5-2.8,7.5-4.2l-22,0.4V348.1z"/>
		<path class="st1" d="M198.6,361.4h1c1-0.1,2.1-0.2,3.1-0.3v-5.9h-4.1V361.4z"/>
	</g>
</g>
<g id="Calque_2">
	<text transform="matrix(1 0 0 1 81.6338 212.414)" class="st4 st2 st5">LIVVI</text>
</g>
<g id="Calque_3">
	<g>
		<path class="st4" d="M357.1,175.4h-9.6l-0.1-21h-22.2l0-18.5l-1,0l1,0l0-2l-4,0v0l4,0l0,2l24.9,0.4c-0.4-1.3-0.8-2.7-1.3-4
			l-25.5-0.4l-43.6,0.3v-23.2h-25.5v36.2h4v-32.2h17.5V136l45.5-0.2l0,18.6h-22.3v4h28.3v0h16.2l0.1,21h13.8v-0.5
			C357.2,177.7,357.1,176.6,357.1,175.4z"/>
		<polygon class="st4" points="302.9,179.4 302.9,179.4 326.6,179.4 326.6,175.4 298.8,175.4 298.8,179.4 298.9,179.4 298.9,179.4 
			298.9,205 343.3,205 343.3,222 298.9,222 298.9,238.2 280.8,238.2 280.7,228.2 276.7,228.2 276.8,242.2 302.9,242.2 302.9,226 
			343.3,226 343.3,226 347.3,226 347.3,223.8 347.3,223.8 347.3,201 302.9,201 		"/>
		<path class="st4" d="M322.2,242.9v23.1h-64.1v-25.7l-4,0l-0.1,29.7h0.1v40h-20v23.2h-21.3v-21.2h-4v21.2h0v0h-44.9v22.7
			c1.3,0.2,2.7,0.3,4,0.5v-19.1h40.9v0h2v-4h0v4h27.3v-23.2h20v-44h68.1v-23.1h20.1c0.3-0.9,0.7-1.8,1-2.7V226h-4v16.8H322.2z"/>
		<path class="st4" d="M75.5,116.4h45.1v28.7h4V92.4h22.3V69.5h43.8v-4h-43.7h0l0.6-46c-1.3,0.3-2.7,0.6-4,1l-0.6,45.1h0v2v0v21
			h-18.2h-4v0H96.2v4h24.4l-0.5,19.9H79.5V90.4h0v-2V69.5h45.2l-0.6-42.8c-1.3,0.5-2.7,1.1-4,1.6l0.5,37.2H79.5v-13
			c-1.4,1.1-2.7,2.2-4,3.3v11.7h0v2v18.9v2h0v-2H57.2V73.9c-1.4,1.6-2.7,3.2-4,4.8v13.8h22.3V116.4z"/>
		<path class="st4" d="M278,292.1h42.6c1-1.3,2.1-2.7,3.1-4H278V292.1z"/>
		<path class="st4" d="M124.9,288.1h-22.6v-40.3h17.7v-4H98.4v21.5h2.1v0h-2.1v4h0v-4H53.2v28.3c1.3,1.6,2.6,3.2,4,4.8v-29.1h41.2
			v22.8h22.6V316h22.6v35.8c1.2,0.3,2.5,0.6,3.7,0.9h0.3V312h-22.6V288.1z"/>
		<polygon class="st4" points="120.1,228.2 120.1,243.8 120.1,247.8 120.1,272.2 124.1,272.2 124.1,247.8 145.5,247.8 145.5,243.8 
			124.1,243.8 124.1,228.2 		"/>
		<polygon class="st4" points="100.4,131.8 75.5,131.8 75.5,145.1 79.5,145.1 79.5,135.8 100.4,135.8 		"/>
		<path class="st4" d="M103.8,42.3H93.6c-2,1.3-4,2.6-5.9,4h16.1V42.3z"/>
		<path class="st4" d="M192.7,15.2c-1.3,0-2.7-0.1-4-0.1v10.1h4V15.2z"/>
		<path class="st4" d="M232.4,39.7v24l-23.7,0.4v25.8h22.4l0.4,55.2h4l-0.4-59.2h-22.4V68l23.7-0.4V43.7h17.7v46.6h46l0.5,22.6H341
			c-0.6-1.3-1.3-2.7-2-4h-34.5l-0.5-22.6h-45.9V39.7H232.4z"/>
		<polygon class="st4" points="165.2,88.4 165.2,108.9 142.1,108.9 142.1,134.4 155.2,134.4 155.3,145.1 159.3,145.1 159.1,130.4 
			146.1,130.4 146.1,112.9 169.2,112.9 169.2,92.4 188.2,92.4 188.2,112.9 208.7,112.9 208.7,132.2 178.2,132.1 178.2,135.9 
			178.2,136.1 192.2,136.1 212.7,136.2 212.7,108.9 192.2,108.9 192.2,88.4 		"/>
		<polygon class="st4" points="73.7,205 73.7,201 56.8,201 56.8,242.2 79.5,242.2 79.5,228.2 75.5,228.2 75.5,238.2 60.8,238.2 
			60.8,205 		"/>
		<polygon class="st4" points="164.9,316 191.3,316 191.3,290.3 236.5,290.3 236.5,243.8 212.7,243.8 212.7,228.2 208.7,228.2 
			208.7,245.8 208.7,247.8 208.7,247.8 208.7,265.3 183.1,265.3 183.1,269.3 212.7,269.3 212.7,247.8 232.5,247.8 232.5,286.3 
			187.3,286.3 187.3,312 168.8,312 168.2,286.4 146.1,286.4 146.1,269.3 170.2,269.3 169.5,247.8 190.8,247.8 190.8,228.2 
			186.8,228.2 186.8,243.8 165.4,243.8 166,265.3 142.1,265.3 142.1,290.4 164.3,290.4 		"/>
		<path class="st4" d="M53.2,179.3l20.5,0.4v-4l-16.5-0.3v-66.5H33.6c-0.7,1.3-1.3,2.7-2,4h21.5V179.3z"/>
		<path class="st4" d="M329.4,92.3c-0.9-1.3-1.7-2.6-2.6-3.9h-1.6v-2.3c-1.3-1.8-2.6-3.6-4-5.3v11.6h8.3V92.3z"/>
		<path class="st4" d="M302.7,60.8c-1.3-1.2-2.6-2.4-4-3.6v8.4H280V43c-1.3-0.9-2.7-1.7-4-2.5v29.1h26.7V60.8z"/>
		<path class="st4" d="M212.7,24.4h29.6c-4.3-1.5-8.8-2.8-13.2-4h-20.4v21.9h-40.9V16c-1.3,0.1-2.7,0.3-4,0.5v29.8h48.9V24.4z"/>
		<path class="st4" d="M102.4,312H79.5v-21.9h-4V316h22.9v16.9c2.4,1.5,4.9,2.9,7.4,4.2h14.9v7.1c1.3,0.5,2.6,1.1,4,1.6h0v-12.7
			h-22.3V312z"/>
		<path class="st4" d="M34.2,131.8H24c-0.4,1.3-0.9,2.7-1.3,4h7.5v18.6h-12c-0.2,1.3-0.5,2.7-0.7,4h16.7V131.8z"/>
		<path class="st4" d="M34.2,221.8H19c0.3,1.3,0.6,2.7,0.9,4h10.3v18h-5c0.5,1.3,1,2.7,1.5,4h3.5v8.4c1.2,2.7,2.5,5.4,3.9,8.1h0.1
			v-16.5h0v-2.9h0V221.8z"/>
		<path class="st4" d="M34.2,175.4H15.6c-0.1,1.2-0.1,2.5-0.2,3.8v0.2h14.8V201H15.9c0.1,1.3,0.2,2.7,0.4,4h17.9V175.4z"/>
		<path class="st4" d="M275.9,331.9c1.4-0.8,2.7-1.7,4-2.6L280,315h18.8c1.5-1.3,3-2.6,4.4-4H276L275.9,331.9z"/>
		<path class="st4" d="M252.8,343.8c1.3-0.6,2.7-1.1,4-1.7v-4.9L267,337c2.5-1.3,4.9-2.7,7.3-4.1l-21.4,0.3V343.8z"/>
		<path class="st4" d="M198.3,356.7h1c1-0.1,2-0.2,3-0.3v-5.7h-4V356.7z"/>
	</g>
</g>
</svg>
