<svg id="Calque_1" data-name="Calque 1" xmlns="http://www.w3.org/2000/svg" viewBox="0 0 373.33 373.33">
	<defs>
		<style>
			.cls-1 {
				fill: #4f7693;
			}
			
			.cls-2,
			.cls-3 {
				fill: #ffe400;
			}
			
			.cls-3 {
				font-size: 70px;
				font-family: Arial Black;
			}
		</style>
	</defs>
	<title>cd-logo-livvi</title>
	<path class="cls-1" d="M484.31,329.65c0,103.09-83.57,186.67-186.67,186.67S111,432.74,111,329.65,194.55,143,297.64,143s186.67,83.57,186.67,186.67" transform="translate(-110.97 -142.98)" />
	<path class="cls-1" d="M141.18,368.75H130.83a169.59,169.59,0,0,0,5.35,18h5v-18Z" transform="translate(-110.97 -142.98)" />
	<path class="cls-1" d="M437.74,231.42q-0.81-1.17-1.64-2.32v2.32h1.64Z" transform="translate(-110.97 -142.98)" />
	<path class="cls-1" d="M186.47,231.42V198.79a172.11,172.11,0,0,0-18.29,18.09v14.55h18.29Z" transform="translate(-110.97 -142.98)" />
	<path class="cls-1" d="M436.1,297.37h22.17l0.12,21H468A170.58,170.58,0,0,0,461,279.21l-24.85-.36v18.52Z" transform="translate(-110.97 -142.98)" />
	<path class="cls-1" d="M409.68,208.5v-8.36A171.6,171.6,0,0,0,391,186V208.5h18.69Z" transform="translate(-110.97 -142.98)" />
	<path class="cls-1" d="M454.41,322.37l-0.12-21H432.1l0-22.59L386.59,278V255.89h-17.5V365.36l22.48-.39,0.17,16.21h18.13V365h44.42V348H409.86V322.37H391.75V346h-4V297.37h25.33v4H391.75v17h45.82v4H413.86V344h44.42v43.09a170.78,170.78,0,0,0,10.09-58c0-2.42-.06-4.82-0.16-7.21v0.46h-13.8Z" transform="translate(-110.97 -142.98)" />
	<path class="cls-1" d="M141.18,322.37H126.36v-0.24c-0.09,2.32-.15,4.64-0.15,7,0,5,.23,10,0.65,14.91h14.31V322.37Z" transform="translate(-110.97 -142.98)" />
	<path class="cls-1" d="M168.17,318.41l22.29,0.44V348H171.74v33.15h14.73V363.26h22.86V344h47.78v22.73h44.71v24h-21.3l0.61,21.51h-24v17.14h22.08L279.8,455h18.47V429.28h45.16V390.78H323.7v21.51H294.12v-4H319.7V361.1h22.84V343H277l-0.89-65.53H253.11V251.89h23V231.42h27v20.46H323.7v27.32l-30.55-.12v17.24l49.38-.73-0.4-62.76H319.7V207.07l23.7-.43v-24h25.68v46.62H415l0.5,22.61H450a170.84,170.84,0,0,0-9.61-16.58v0.11H432.1V223.78a172,172,0,0,0-18.42-20v8.75H387V183.42a170.32,170.32,0,0,0-33.69-16H323.7V189.3H274.76V159.51q-8.26,1.09-16.27,2.94l-0.58,46h43.75v4H257.88v22.93H235.6v66H213.32v17h40.55v-19h4v23H209.32v-21H186.47V274.82h24.86v4H190.47v18.55H231.6v-38H186.47V235.43H164.17V221.66a171.28,171.28,0,0,0-19.58,30.23h23.58v66.52Z" transform="translate(-110.97 -142.98)" />
	<path class="cls-1" d="M231.57,208.5l-0.49-37.18a170.57,170.57,0,0,0-26.48,14h10.2v4H198.68q-4.2,3-8.21,6.19v13h41.11Z" transform="translate(-110.97 -142.98)" />
	<path class="cls-1" d="M190.47,212.5v42.86H231.1l0.45-19.93H207.2v-4h46.68V208.5h0l0.57-45.06a169.87,169.87,0,0,0-19.41,6.27l0.56,42.79H190.47Z" transform="translate(-110.97 -142.98)" />
	<path class="cls-1" d="M319.7,185.3V163.42h20.36a171,171,0,0,0-36.41-5.26v10h-4V158.06l-2.36,0a172.89,172.89,0,0,0-18.53,1V185.3H319.7Z" transform="translate(-110.97 -142.98)" />
	<path class="cls-1" d="M141.18,278.82h-7.45a170,170,0,0,0-4.57,18.55h12V278.82Z" transform="translate(-110.97 -142.98)" />
	<path class="cls-1" d="M137.67,390.78q1.65,4.26,3.51,8.41v-8.41h-3.51Z" transform="translate(-110.97 -142.98)" />
	<path class="cls-1" d="M319.7,476.06V454.89h4v21.17H345V452.89h20v-40H365l0.06-29.73h4v25.72h64.11V385.84h21.09V369H413.86v16.17H387.77L387.61,369l-22.52.39V322.37h-64v-4h64V251.89h25.5v23.19l43.57-.26,25.54,0.37a170,170,0,0,0-7.75-19.3H411.62l-0.5-22.61h-46V186.66H347.4v23.91l-23.7.43v17.85h22.4l0.45,70.68-47.4.88V275.07l20.55,0.11v-19.3H299.16V235.42h-19v20.46h-23v17.54h13L271,339h75.56V365.1H323.7v21.68h23.73v46.51H302.27V459H275.9l-0.61-25.54H253.11V408.29H277l-0.61-21.51h21.42v-16H253.11V348H213.33v19.24H190.47v17.91H167.74V344h18.73V322.77l-22.29-.44V255.89H142.63A169.79,169.79,0,0,0,135,274.82h10.17v26.55H128.46q-1.37,8.37-1.9,17h18.62V348H127.25q0.93,8.5,2.68,16.73h15.24v42.54h-0.1a171.21,171.21,0,0,0,19.09,29.28V408.29h45.15V386.78h21.73V361.7h4v25.08h21.43v4H235.06V415.2h-4V390.78H213.33V431h22.58V455h22.58v40.75h-0.25q8.12,1.9,16.52,3V476.06H319.7Z" transform="translate(-110.97 -142.98)" />
	<path class="cls-1" d="M367.75,485.06q5.19-2.35,10.18-5l-10.18.16v4.87Z" transform="translate(-110.97 -142.98)" />
	<path class="cls-1" d="M390.88,472.33A171.81,171.81,0,0,0,409.79,458H391Z" transform="translate(-110.97 -142.98)" />
	<path class="cls-1" d="M231.91,459V435H209.33V412.29H168.17v29.06a171.87,171.87,0,0,0,41.15,34.52V459H186.47V433h4V455h22.86v21.09H235.6v12.65h0a169.78,169.78,0,0,0,18.92,6.08V459H231.91Z" transform="translate(-110.97 -142.98)" />
	<path class="cls-1" d="M437.19,389.84v23.05H369.09v44H349v23.17H278.76v19.13a172.85,172.85,0,0,0,18.53,1q6.52,0,12.92-.48h-1v-6h4v5.74a170,170,0,0,0,50.51-12.64V476.25l21.44-.34,1.68-1L387,454h27.2a171.86,171.86,0,0,0,17.43-19H389v-4H434.7a170.8,170.8,0,0,0,22.57-41.2H437.19Z" transform="translate(-110.97 -142.98)" />
	<path class="cls-1" d="M216.71,480.06q7.24,3.88,14.89,7.06v-7.06H216.71Z" transform="translate(-110.97 -142.98)" />
	<path class="cls-2" d="M390.59,275.08V251.89h-25.5v66.48h-64v4h64v-2h4V255.89h17.5V279l45.53-.23v-2h4v2L461,279.21q-0.62-2-1.28-4l-25.54-.37Z" transform="translate(-110.97 -142.98)" />
	<polygon class="cls-2" points="283.61 175.38 285.78 175.38 285.78 158.39 327.11 158.39 327.11 154.39 281.78 154.39 281.78 203.04 285.78 203.04 285.78 179.38 283.61 179.38 283.61 175.38" />
	<polygon class="cls-2" points="302.88 177.85 302.88 179.38 326.6 179.38 326.6 175.38 280.78 175.38 280.78 179.38 298.88 179.38 298.88 177.85 302.88 177.85" />
	<rect class="cls-2" x="278.61" y="175.39" width="2.17" height="4" />
	<polygon class="cls-2" points="347.31 223.77 347.31 201.04 302.88 201.04 302.88 179.38 298.88 179.38 298.88 205.04 343.31 205.04 343.31 222.02 298.88 222.02 298.88 238.19 280.76 238.19 280.59 221.98 258.11 222.38 258.11 179.38 254.11 179.38 254.11 226.45 276.63 226.05 276.8 242.19 302.88 242.19 302.88 226.02 343.31 226.02 343.31 223.77 347.31 223.77" />
	<rect class="cls-2" x="254.11" y="177.39" width="4" height="2" />
	<rect class="cls-2" x="298.88" y="177.85" width="4" height="1.54" />
	<path class="cls-2" d="M454.28,369v16.84H433.19v23.05H369.09V383.17h-4L365,412.89h0.06v40H345v23.17H323.7V454.89h-4v21.17h2v4H349V456.89h20v-44h68.11V389.84h20.07c0.34-.91.68-1.82,1-2.73V369h-4Z" transform="translate(-110.97 -142.98)" />
	<rect class="cls-2" x="343.31" y="223.77" width="4" height="2.25" />
	<path class="cls-2" d="M458.27,297.37H436.1V278.85l-2,0-2,0v22.59h22.19l0.12,21h13.8V321.9q-0.07-1.77-.18-3.54h-9.64Z" transform="translate(-110.97 -142.98)" />
	<polygon class="cls-2" points="325.14 135.87 325.14 133.84 321.14 133.84 321.14 135.81 323.12 135.84 325.14 135.87" />
	<polygon class="cls-2" points="208.73 265.31 183.14 265.31 183.14 269.31 212.73 269.31 212.73 247.79 208.73 247.79 208.73 265.31" />
	<polygon class="cls-2" points="142.9 67.49 142.9 88.44 124.67 88.44 124.04 116.37 120.63 116.37 120.63 154.39 100.35 154.39 100.35 158.39 98.35 158.39 98.35 179.38 146.9 179.38 146.9 156.39 142.9 156.39 142.9 175.38 102.35 175.38 102.35 158.39 124.63 158.39 124.63 92.44 146.9 92.44 146.9 69.51 190.68 69.51 190.68 65.51 146.93 65.51 146.9 67.54 142.9 67.49" />
	<polygon class="cls-2" points="142.9 65.51 142.9 67.49 142.93 65.51 142.9 65.51" />
	<path class="cls-2" d="M389,435h42.64q1.56-2,3.06-4H389v4Z" transform="translate(-110.97 -142.98)" />
	<path class="cls-2" d="M319.7,480.06v-4H274.76v22.66c1.33,0.18,2.66.33,4,.48V480.06H319.7Z" transform="translate(-110.97 -142.98)" />
	<rect class="cls-2" x="208.73" y="333.08" width="2" height="4" />
	<rect class="cls-2" x="124.08" y="243.8" width="21.43" height="4" />
	<path class="cls-2" d="M258.49,455H235.91V431H213.33V390.78h17.73v-4H209.33v21.51h2.08v4h-2.08V435h22.58V459h22.58V494.8q1.86,0.48,3.74.91h0.26V455Z" transform="translate(-110.97 -142.98)" />
	<rect class="cls-2" x="120.08" y="247.8" width="4" height="24.43" />
	<rect class="cls-2" x="120.08" y="218.71" width="4" height="25.08" />
	<rect class="cls-2" x="120.08" y="243.8" width="4" height="4" />
	<polygon class="cls-2" points="79.49 154.39 79.49 135.84 100.35 135.84 100.35 131.84 75.49 131.84 75.49 158.39 98.35 158.39 98.35 154.39 79.49 154.39" />
	<rect class="cls-2" x="98.35" y="154.39" width="2" height="4" />
	<path class="cls-2" d="M186.47,235.42v23.93H231.6V231.42H207.2v4h24.36l-0.45,19.93H190.47V233.42h-4v-2H168.17V216.87q-2,2.35-4,4.78v13.77h22.29Z" transform="translate(-110.97 -142.98)" />
	<polygon class="cls-2" points="124.67 88.44 120.63 88.44 120.63 116.37 124.04 116.37 124.67 88.44" />
	<path class="cls-2" d="M214.8,185.3H204.6q-3,1.94-5.92,4H214.8v-4Z" transform="translate(-110.97 -142.98)" />
	<path class="cls-2" d="M190.47,210.5v2h45.16l-0.56-42.79q-2,.78-4,1.61l0.49,37.18H190.47v-13q-2,1.62-4,3.3V210.5h4Z" transform="translate(-110.97 -142.98)" />
	<path class="cls-2" d="M303.65,168.2v-10q-2-.07-4-0.1V168.2h4Z" transform="translate(-110.97 -142.98)" />
	<rect class="cls-2" x="75.49" y="69.51" width="4" height="18.93" />
	<rect class="cls-2" x="75.49" y="88.44" width="4" height="2" />
	<rect class="cls-2" x="75.49" y="67.51" width="4" height="2" />
	<path class="cls-2" d="M346.56,299.53l-0.45-70.68H323.7V211l23.7-.43V186.66h17.68v46.62h46l0.5,22.61h40.32q-1-2-2-4H415.53L415,229.28H369.09V182.66H343.4v24l-23.7.43v25.78h22.43l0.4,62.75" transform="translate(-110.97 -142.98)" />
	<path class="cls-2" d="M289.15,278.85v-3.77l30.55,0.11v-19.3H299.15V235.42h-19v20.47h-23v17.54h13L271,339h75.56V365.1H323.7v21.68h23.73v46.51H302.27V459H275.9l-0.61-25.54H253.11V408.29H277l-0.61-21.51h21.42v-16H253.11V348H213.32v19.24H190.47v17.91H167.74V344h18.73V322.77l-22.3-.44V255.89H142.63q1-2,2-4h23.58v66.52l22.3,0.44V348H171.74v33.14h14.73V363.26h22.86V344h47.78v22.73h44.71v24h-21.3l0.61,21.51h-24v17.14h22.08L279.8,455h18.47V429.28h45.16V390.78H323.7v-2h-4V361.1h22.85V343H267l-0.89-65.53H253.11V251.89h23V231.42h27v20.46H323.7v27.32l-20.55-.11h-14v-0.25Z" transform="translate(-110.97 -142.98)" />
	<rect class="cls-2" x="208.73" y="245.8" width="4" height="2" />
	<path class="cls-2" d="M257.9,208.5l0.58-46q-2,.47-4,1L253.9,208.5h4Z" transform="translate(-110.97 -142.98)" />
	<polygon class="cls-2" points="142.9 67.49 146.9 67.54 146.93 65.51 142.93 65.51 142.9 67.49" />
	<path class="cls-2" d="M440.37,235.42v-0.11q-1.29-2-2.63-3.89H436.1v-2.32q-2-2.7-4-5.33v11.65h8.27Z" transform="translate(-110.97 -142.98)" />
	<path class="cls-2" d="M413.68,212.5v-8.75q-2-1.83-4-3.61v8.36H391V186q-2-1.3-4-2.55V212.5h26.69Z" transform="translate(-110.97 -142.98)" />
	<path class="cls-2" d="M323.7,189.3V167.42h29.6q-6.51-2.25-13.24-4H319.7V185.3H278.76V159q-2,.22-4,0.48V189.3H323.7Z" transform="translate(-110.97 -142.98)" />
	<path class="cls-2" d="M235.6,476.06H213.33V455H190.47V433h-4V459h22.86v16.91q3.63,2.18,7.39,4.19H231.6v7.06q2,0.82,4,1.59h0V476.06Z" transform="translate(-110.97 -142.98)" />
	<path class="cls-2" d="M209.33,412.29v-4H164.17v28.28q2,2.43,4,4.78V412.29h41.15Z" transform="translate(-110.97 -142.98)" />
	<rect class="cls-2" x="98.35" y="265.31" width="2.08" height="4" />
	<path class="cls-2" d="M145.18,274.82H135q-0.67,2-1.28,4h7.45v18.55h-12q-0.37,2-.7,4h16.72V274.82Z" transform="translate(-110.97 -142.98)" />
	<path class="cls-2" d="M141.18,387.84h4V364.75H129.94q0.42,2,.9,4h10.34v18h-5q0.72,2,1.49,4h3.51v-2.94Z" transform="translate(-110.97 -142.98)" />
	<path class="cls-2" d="M145.18,318.37H126.55q-0.12,1.88-.19,3.76v0.24h14.82V344H126.86q0.17,2,.39,4h17.92V318.37Z" transform="translate(-110.97 -142.98)" />
	<path class="cls-2" d="M145.18,390.78h-4v8.41q1.85,4.11,3.9,8.1h0.1V390.78Z" transform="translate(-110.97 -142.98)" />
	<rect class="cls-2" x="30.2" y="244.86" width="4" height="2.94" />
	<path class="cls-2" d="M386.86,474.89q2-1.25,4-2.55L391,458h18.81q2.24-2,4.42-4H387Z" transform="translate(-110.97 -142.98)" />
	<path class="cls-2" d="M363.75,486.8q2-.85,4-1.75v-4.87l10.18-.16q3.68-2,7.26-4.12l-21.44.34V486.8Z" transform="translate(-110.97 -142.98)" />
	<path class="cls-2" d="M309.24,493.71v6h1c1-.08,2-0.17,3-0.26v-5.74h-4Z" transform="translate(-110.97 -142.98)" />
	<rect class="cls-1" x="73.65" y="145.11" width="225.16" height="83.1" />
	<text class="cls-3" transform="translate(81.63 212.41)">LIVVI</text>
</svg>