<?xml version="1.0" encoding="utf-8"?>
<!-- Generator: Adobe Illustrator 16.0.0, SVG Export Plug-In . SVG Version: 6.00 Build 0)  -->
<!DOCTYPE svg PUBLIC "-//W3C//DTD SVG 1.1//EN" "http://www.w3.org/Graphics/SVG/1.1/DTD/svg11.dtd">
<svg version="1.1" id="Calque_1" xmlns="http://www.w3.org/2000/svg" xmlns:xlink="http://www.w3.org/1999/xlink" x="0px" y="0px"
	 width="720px" height="405.35px" viewBox="0 0 720 405.35" enable-background="new 0 0 720 405.35" xml:space="preserve">
<g id="Calque_1_1_">
	<path fill="#272553" d="M562.675,202.73c0,111.951-90.777,202.729-202.729,202.729c-111.843-0.108-202.621-90.777-202.621-202.729
		C157.325,90.778,248.103,0,360.054,0S562.675,90.778,562.675,202.73"/>
</g>
<g id="Calque_2_-_copie">
	<g enable-background="new    ">
		<path fill="#4358A4" d="M248.584,175.542h17.271v42.131h26.956v13.764h-44.228V175.542z"/>
		<path fill="#4358A4" d="M301.353,175.542h17.31v55.895h-17.31V175.542z"/>
		<path fill="#4358A4" d="M325.564,175.542h18.055l12.581,40.225l12.419-40.225h17.529l-20.754,55.895h-18.72L325.564,175.542z"/>
		<path fill="#4358A4" d="M386.301,175.542h18.055l12.58,40.225l12.419-40.225h17.531l-20.756,55.895h-18.72L386.301,175.542z"/>
		<path fill="#4358A4" d="M453.214,175.542h17.31v55.895h-17.31V175.542z"/>
	</g>
</g>
<g id="Calque_3_-_copie">
	<g>
		<path fill="#4358A4" d="M550.079,190.133h-10.75l-0.108-23.454h-24.758v-20.631h-1.086h1.086v-2.281h-4.452l0,0h4.452v2.281
			l27.689,0.434c-0.435-1.52-0.978-3.04-1.411-4.452l-28.45-0.434l-48.646,0.325v-25.843h-28.342v40.285h4.452v-35.942h19.546
			v25.844l50.818-0.217v20.739h-24.866v4.452h31.598l0,0h18.134l0.109,23.454h15.419v-0.543
			C550.296,192.74,550.188,191.437,550.079,190.133z"/>
		<polygon fill="#4358A4" points="489.705,194.585 489.705,194.585 516.092,194.585 516.092,190.133 485.145,190.133 
			485.145,194.585 485.254,194.585 485.254,194.585 485.254,223.252 534.769,223.252 534.769,242.146 485.254,242.146 
			485.254,260.171 464.948,260.171 464.84,249.095 460.388,249.095 460.604,264.623 489.705,264.623 489.705,246.598 
			534.769,246.598 534.769,246.598 539.221,246.598 539.221,244.101 539.221,244.101 539.221,218.8 489.705,218.8 		"/>
		<path fill="#4358A4" d="M511.205,265.383v25.735h-71.558v-28.667h-4.452l-0.108,33.118h0.108v44.629h-22.368v25.844h-23.78
			v-23.563h-4.452v23.563l0,0l0,0h-50.167v25.3c1.52,0.218,2.932,0.326,4.452,0.543v-21.392h45.715l0,0h2.28v-4.451l0,0v4.451
			h30.513v-25.843h22.368V295.57h76.01v-25.734h22.369c0.435-0.978,0.76-2.063,1.086-3.04v-20.197h-4.452v18.785H511.205z"/>
		<path fill="#4358A4" d="M236.049,124.33h50.384v32.033h4.452V97.618h24.866V71.992h48.864V67.54H315.86l0,0l0.652-51.361
			c-1.521,0.326-3.041,0.761-4.452,1.086l-0.652,50.275l0,0v2.172l0,0v23.346h-20.522h-4.561l0,0h-27.146v4.452h27.146l-0.543,22.26
			h-45.28V95.338l0,0v-2.28V71.992h50.384l-0.651-47.778c-1.521,0.543-2.932,1.195-4.452,1.847l0.543,41.479h-45.823V53.098
			c-1.52,1.195-3.041,2.39-4.452,3.692v13.03l0,0v2.28v21.065v2.28l0,0v-2.28h-20.414V76.878c-1.52,1.738-3.04,3.584-4.452,5.321
			V97.51h24.866V124.33z"/>
		<path fill="#4358A4" d="M461.907,320.327h47.561c1.194-1.521,2.28-2.932,3.366-4.452h-51.035v4.452H461.907z"/>
		<path fill="#4358A4" d="M291.211,315.767h-25.192v-44.954h19.763v-4.452h-24.214v23.997h2.28l0,0h-2.28v4.452l0,0v-4.452h-50.384
			v31.49c1.412,1.846,2.932,3.583,4.452,5.32v-32.467h45.932v25.626h25.191v26.712h25.192v39.96
			c1.412,0.325,2.823,0.651,4.126,0.977h0.326v-45.497h-25.192V315.767z"/>
		<polygon fill="#4358A4" points="285.782,249.095 285.782,266.469 285.782,270.921 285.782,298.176 290.234,298.176 
			290.234,270.921 314.123,270.921 314.123,266.469 290.234,266.469 290.234,249.095 		"/>
		<polygon fill="#4358A4" points="263.739,141.596 236.049,141.596 236.049,156.364 240.501,156.364 240.501,146.048 
			263.739,146.048 		"/>
		<path fill="#4358A4" d="M267.648,41.697h-11.401c-2.28,1.412-4.452,2.933-6.624,4.452h18.025V41.697z"/>
		<path fill="#4358A4" d="M366.787,11.402c-1.521-0.108-2.932-0.108-4.453-0.108v11.293h4.453V11.402z"/>
		<path fill="#4358A4" d="M411.09,38.765v26.712l-26.387,0.435v28.775h24.975l0.435,61.677h4.452l-0.435-66.129h-24.975V70.364
			l26.386-0.435V43.217h19.763V95.23h51.361l0.543,25.191h44.954c-0.76-1.52-1.411-2.932-2.171-4.452h-38.439l-0.543-25.191h-51.253
			V38.765H411.09z"/>
		<polygon fill="#4358A4" points="336.057,93.166 336.057,115.969 310.322,115.969 310.322,144.419 324.873,144.419 325.09,156.364 
			329.542,156.364 329.325,139.967 314.774,139.967 314.774,120.421 340.509,120.421 340.509,97.618 361.684,97.618 
			361.684,120.421 384.595,120.421 384.595,141.921 350.607,141.813 350.607,146.048 350.607,146.373 366.135,146.373 
			389.047,146.482 389.047,115.969 366.135,115.969 366.135,93.166 		"/>
		<polygon fill="#4358A4" points="233.986,223.252 233.986,218.8 215.092,218.8 215.092,264.623 240.501,264.623 240.501,249.095 
			236.049,249.095 236.049,260.171 219.544,260.171 219.544,223.252 		"/>
		<polygon fill="#4358A4" points="335.731,346.931 365.158,346.931 365.158,318.372 415.541,318.372 415.541,266.469 
			389.047,266.469 389.047,249.095 384.595,249.095 384.595,268.641 384.595,270.921 384.595,270.921 384.595,290.466 
			356.145,290.466 356.145,294.918 389.155,294.918 389.155,270.921 411.09,270.921 411.09,313.812 360.706,313.812 
			360.706,342.479 340.183,342.479 339.423,314.03 314.774,314.03 314.774,294.918 341.595,294.918 340.943,270.921 
			364.724,270.921 364.724,249.095 360.271,249.095 360.271,266.469 336.383,266.469 337.034,290.466 310.322,290.466 
			310.322,318.482 335.08,318.482 		"/>
		<path fill="#4358A4" d="M211.184,194.585l22.803,0.435v-4.452l-18.351-0.325v-74.164h-26.277c-0.76,1.52-1.521,2.932-2.172,4.451
			h23.998V194.585z"/>
		<path fill="#4358A4" d="M519.241,97.51c-0.978-1.412-1.955-2.932-2.933-4.344h-1.846v-2.605c-1.411-2.063-2.932-4.018-4.452-5.973
			v13.03h9.23V97.51L519.241,97.51z"/>
		<path fill="#4358A4" d="M489.488,62.22c-1.521-1.412-2.932-2.715-4.452-4.019v9.339h-20.849V42.457
			c-1.52-0.978-2.932-1.955-4.451-2.823v32.467h29.752V62.22L489.488,62.22z"/>
		<path fill="#4358A4" d="M389.155,21.717h33.01c-4.886-1.629-9.772-3.148-14.768-4.452h-22.694v24.432h-45.714V12.379
			c-1.52,0.108-2.932,0.325-4.452,0.543v33.227h54.619V21.717L389.155,21.717z"/>
		<path fill="#4358A4" d="M266.019,342.479h-25.518v-24.432h-4.452v28.884h25.518v18.894c2.714,1.629,5.429,3.149,8.252,4.669
			h16.613v7.927c1.412,0.652,2.932,1.195,4.452,1.738l0,0v-14.116h-24.866V342.479z"/>
		<path fill="#4358A4" d="M190.009,141.596h-11.401c-0.543,1.52-0.978,2.932-1.412,4.452h8.361v20.739h-13.464
			c-0.326,1.521-0.543,2.932-0.76,4.452h18.677V141.596z"/>
		<path fill="#4358A4" d="M190.009,241.929h-17.048c0.326,1.52,0.651,2.932,0.977,4.452h11.51v20.088h-5.538
			c0.543,1.521,1.086,2.932,1.629,4.452h3.909v9.338c1.412,3.041,2.823,6.081,4.343,9.013h0.108v-18.459l0,0v-3.258l0,0v-25.626
			H190.009z"/>
		<path fill="#4358A4" d="M190.009,190.133h-20.849c-0.108,1.412-0.108,2.823-0.217,4.235v0.217h16.505v24.106h-15.962
			c0.109,1.52,0.326,2.932,0.435,4.452H189.9v-33.011H190.009z"/>
		<path fill="#4358A4" d="M459.519,364.739c1.521-0.977,3.041-1.846,4.452-2.823l0.108-15.962h20.957
			c1.629-1.411,3.258-2.932,4.887-4.452h-30.296L459.519,364.739z"/>
		<path fill="#4358A4" d="M433.784,377.987c1.52-0.651,2.932-1.304,4.452-1.955v-5.429l11.401-0.218
			c2.715-1.52,5.429-3.04,8.144-4.561l-23.889,0.435v11.728H433.784z"/>
		<path fill="#4358A4" d="M372.977,392.428h1.086c1.085-0.108,2.279-0.217,3.365-0.325v-6.407h-4.451V392.428z"/>
	</g>
</g>
<g id="Calque_2">
	<g>
		<path fill="#D0EAF3" d="M251.577,176.235h16.831v41.045h26.277v13.356h-43.108V176.235z"/>
		<path fill="#D0EAF3" d="M302.938,176.235h16.831v54.401h-16.831V176.235z"/>
		<path fill="#D0EAF3" d="M326.501,176.235h17.591l12.27,39.199l12.054-39.199h17.047l-20.196,54.401h-18.243L326.501,176.235z"/>
		<path fill="#D0EAF3" d="M385.572,176.235h17.59l12.271,39.199l12.053-39.199h17.048l-20.197,54.401h-18.242L385.572,176.235z"/>
		<path fill="#D0EAF3" d="M450.724,176.235h16.83v54.401h-16.83V176.235z"/>
	</g>
</g>
<g id="Calque_3">
	<g>
		<path fill="#D0EAF3" d="M545.084,190.459H534.66l-0.108-22.803h-24.106v-20.089h-1.086h1.086v-2.172h-4.344l0,0h4.344v2.172
			l27.038,0.435c-0.435-1.412-0.869-2.932-1.412-4.344l-27.689-0.434l-47.343,0.325v-25.191H433.35v39.308h4.344v-34.965h19.002
			v24.975l49.406-0.217v20.197h-24.214v4.343h30.729l0,0h17.591l0.108,22.804h14.985v-0.543
			C545.192,192.956,545.084,191.762,545.084,190.459z"/>
		<polygon fill="#D0EAF3" points="486.23,194.803 486.23,194.803 511.966,194.803 511.966,190.459 481.778,190.459 481.778,194.803 
			481.888,194.803 481.888,194.803 481.888,222.601 530.1,222.601 530.1,241.06 481.888,241.06 481.888,258.651 462.233,258.651 
			462.125,247.792 457.781,247.792 457.89,262.994 486.23,262.994 486.23,245.404 530.1,245.404 530.1,245.404 534.442,245.404 
			534.442,243.015 534.442,243.015 534.442,218.257 486.23,218.257 		"/>
		<path fill="#D0EAF3" d="M507.188,263.754v25.084h-69.604v-27.907h-4.343l-0.108,32.25h0.108v43.435h-21.718v25.191h-23.129v-23.02
			h-4.343v23.02l0,0l0,0h-48.755v24.649c1.412,0.217,2.932,0.325,4.343,0.543v-20.74h44.412l0,0h2.172v-4.344l0,0v4.344h29.644
			v-25.191h21.717v-47.778h73.947v-25.083h21.825c0.326-0.978,0.761-1.954,1.086-2.932v-19.871H530.1v18.242h-22.912V263.754z"/>
		<path fill="#D0EAF3" d="M239.307,126.394h48.972v31.164h4.343v-57.225h24.215V75.467h47.56v-4.344h-47.452l0,0l0.651-49.949
			c-1.412,0.326-2.932,0.651-4.343,1.086l-0.651,48.972l0,0v2.172l0,0v22.804H292.84h-4.343l0,0h-26.712v4.343h26.495l-0.543,21.608
			H243.65V98.161l0,0V95.99V75.467h49.081l-0.652-46.475c-1.412,0.543-2.932,1.194-4.343,1.737l0.543,40.394H243.65V57.007
			c-1.52,1.194-2.932,2.39-4.343,3.584v12.704l0,0v2.172V95.99v2.172l0,0V95.99h-19.871V80.244
			c-1.521,1.737-2.932,3.476-4.344,5.213v14.984h24.215V126.394z"/>
		<path fill="#D0EAF3" d="M459.193,317.178h46.257c1.086-1.411,2.28-2.932,3.366-4.343h-49.623V317.178z"/>
		<path fill="#D0EAF3" d="M292.948,312.835h-24.54v-43.76h19.22v-4.344h-23.455v23.346h2.28l0,0h-2.28v4.344l0,0v-4.344h-49.081
			v30.729c1.412,1.737,2.823,3.475,4.344,5.212v-31.598h44.737v24.757h24.54v25.952h24.541v38.874
			c1.303,0.325,2.715,0.651,4.018,0.978h0.326v-44.194h-24.54v-25.952H292.948z"/>
		<polygon fill="#D0EAF3" points="287.736,247.792 287.736,264.732 287.736,269.075 287.736,295.57 292.08,295.57 292.08,269.075 
			315.317,269.075 315.317,264.732 292.08,264.732 292.08,247.792 		"/>
		<polygon fill="#D0EAF3" points="266.345,143.115 239.307,143.115 239.307,157.558 243.65,157.558 243.65,147.459 266.345,147.459 
					"/>
		<path fill="#D0EAF3" d="M270.037,45.932h-11.076c-2.171,1.411-4.343,2.823-6.406,4.343h17.482V45.932L270.037,45.932z"/>
		<path fill="#D0EAF3" d="M366.569,16.505c-1.411,0-2.932-0.108-4.343-0.108v10.967h4.343V16.505z"/>
		<path fill="#D0EAF3" d="M409.678,43.109v26.061l-25.734,0.435v28.015h24.322l0.436,59.939h4.343l-0.435-64.283h-24.322V73.838
			l25.734-0.435V47.451h19.22v50.602h49.949l0.543,24.54h43.868c-0.651-1.411-1.411-2.932-2.171-4.344h-37.463l-0.543-24.54h-49.841
			V43.109H409.678z"/>
		<polygon fill="#D0EAF3" points="336.708,95.99 336.708,118.249 311.625,118.249 311.625,145.939 325.85,145.939 325.958,157.558 
			330.302,157.558 330.084,141.596 315.969,141.596 315.969,122.593 341.052,122.593 341.052,100.333 361.684,100.333 
			361.684,122.593 383.943,122.593 383.943,143.55 350.825,143.442 350.825,147.568 350.825,147.785 366.026,147.785 
			388.287,147.894 388.287,118.249 366.026,118.249 366.026,95.99 		"/>
		<polygon fill="#D0EAF3" points="237.353,222.601 237.353,218.257 219.001,218.257 219.001,262.994 243.65,262.994 243.65,247.792 
			239.307,247.792 239.307,258.651 223.345,258.651 223.345,222.601 		"/>
		<polygon fill="#D0EAF3" points="336.383,343.13 365.049,343.13 365.049,315.224 414.13,315.224 414.13,264.732 388.287,264.732 
			388.287,247.792 383.943,247.792 383.943,266.904 383.943,269.075 383.943,269.075 383.943,288.077 356.145,288.077 
			356.145,292.421 388.287,292.421 388.287,269.075 409.787,269.075 409.787,310.88 360.706,310.88 360.706,338.787 
			340.618,338.787 339.966,310.989 315.969,310.989 315.969,292.421 342.138,292.421 341.377,269.075 364.506,269.075 
			364.506,247.792 360.163,247.792 360.163,264.732 336.926,264.732 337.577,288.077 311.625,288.077 311.625,315.332 
			335.731,315.332 		"/>
		<path fill="#D0EAF3" d="M215.092,194.694l22.26,0.435v-4.344l-17.917-0.325v-72.21H193.81c-0.76,1.412-1.412,2.933-2.171,4.344
			h23.346v72.101H215.092z"/>
		<path fill="#D0EAF3" d="M515.006,100.225c-0.978-1.412-1.846-2.823-2.823-4.235h-1.737v-2.497
			c-1.411-1.955-2.823-3.909-4.344-5.755v12.596h9.013v-0.108H515.006z"/>
		<path fill="#D0EAF3" d="M486.014,66.02c-1.411-1.303-2.823-2.605-4.344-3.909v9.121h-20.306v-24.54
			c-1.411-0.978-2.932-1.846-4.343-2.715v31.599h28.992V66.02z"/>
		<path fill="#D0EAF3" d="M388.287,26.495h32.141c-4.669-1.629-9.555-3.041-14.333-4.344h-22.151v23.78h-44.412V17.373
			c-1.412,0.109-2.932,0.326-4.343,0.543v32.358h53.099V26.495z"/>
		<path fill="#D0EAF3" d="M268.517,338.787H243.65v-23.78h-4.343v28.123h24.866v18.352c2.606,1.628,5.321,3.148,8.035,4.561h16.179
			v7.709c1.412,0.543,2.823,1.194,4.344,1.737l0,0v-13.79h-24.215V338.787z"/>
		<path fill="#D0EAF3" d="M194.461,143.115h-11.076c-0.435,1.412-0.978,2.933-1.412,4.344h8.144v20.197h-13.03
			c-0.217,1.411-0.543,2.932-0.76,4.343h18.134V143.115z"/>
		<path fill="#D0EAF3" d="M194.461,240.843h-16.505c0.326,1.411,0.652,2.932,0.978,4.344h11.184v19.545h-5.429
			c0.543,1.412,1.086,2.932,1.629,4.344h3.8v9.121c1.303,2.932,2.715,5.863,4.235,8.795h0.109v-17.916l0,0v-3.149l0,0V240.843z"/>
		<path fill="#D0EAF3" d="M194.461,190.459h-20.197c-0.108,1.303-0.108,2.715-0.217,4.126v0.218h16.07v23.454H174.59
			c0.109,1.411,0.217,2.932,0.435,4.344h19.437V190.459L194.461,190.459z"/>
		<path fill="#D0EAF3" d="M456.913,360.396c1.52-0.869,2.932-1.847,4.343-2.823l0.108-15.528h20.414
			c1.629-1.411,3.258-2.823,4.778-4.343h-29.535L456.913,360.396z"/>
		<path fill="#D0EAF3" d="M431.829,373.317c1.412-0.651,2.932-1.194,4.344-1.846v-5.32l11.076-0.218
			c2.714-1.411,5.32-2.932,7.926-4.451l-23.236,0.325v11.51H431.829z"/>
		<path fill="#D0EAF3" d="M372.65,387.324h1.086c1.086-0.108,2.172-0.217,3.258-0.325v-6.189h-4.344V387.324z"/>
	</g>
</g>
</svg>
